HIERARCHY
ROOT Hips
{
	OFFSET 0.000000 -1.452993 81.873535
	CHANNELS 6 Xposition Yposition Zposition Xrotation Yrotation Zrotation
	JOINT LHipJoint
	{
		OFFSET 0.000000 0.000000 0.000000
		CHANNELS 6 Xposition Yposition Zposition Xrotation Yrotation Zrotation
		JOINT LeftUpLeg
		{
			OFFSET 10.633684 0.989041 -1.935760
			CHANNELS 6 Xposition Yposition Zposition Xrotation Yrotation Zrotation
			JOINT LeftLeg
			{
				OFFSET 3.100534 -2.883984 -33.039326
				CHANNELS 3 Xrotation Yrotation Zrotation
				JOINT LeftFoot
				{
					OFFSET 3.853231 2.499628 -39.978195
					CHANNELS 3 Xrotation Yrotation Zrotation
					JOINT LeftToeBase
					{
						OFFSET 0.872595 -12.913427 -4.519028
						CHANNELS 3 Xrotation Yrotation Zrotation
						End Site
						{
							OFFSET 1.101318 -13.406555 -2.644062
						}
					}
				}
			}
		}
	}
	JOINT LowerBack
	{
		OFFSET -0.000000 3.682897 7.846214
		CHANNELS 6 Xposition Yposition Zposition Xrotation Yrotation Zrotation
		JOINT Spine
		{
			OFFSET 0.000000 -0.321414 13.552467
			CHANNELS 6 Xposition Yposition Zposition Xrotation Yrotation Zrotation
			JOINT Spine1
			{
				OFFSET -0.000000 0.526906 12.045708
				CHANNELS 6 Xposition Yposition Zposition Xrotation Yrotation Zrotation
				JOINT LeftShoulder
				{
					OFFSET 2.181147 -5.601495 9.909775
					CHANNELS 6 Xposition Yposition Zposition Xrotation Yrotation Zrotation
					JOINT LeftArm
					{
						OFFSET 13.807796 0.477388 -1.889328
						CHANNELS 3 Xrotation Yrotation Zrotation
						JOINT LeftForeArm
						{
							OFFSET 14.961231 -1.118160 -16.000237
							CHANNELS 3 Xrotation Yrotation Zrotation
							JOINT LeftHand
							{
								OFFSET 11.076982 -14.799612 -10.689354
								CHANNELS 3 Xrotation Yrotation Zrotation
								JOINT LThumb
								{
									OFFSET 0.078232 -4.097322 -0.602608
									CHANNELS 6 Xposition Yposition Zposition Xrotation Yrotation Zrotation
									End Site
									{
										OFFSET -2.422436 -2.470791 -0.896889
									}
								}
								JOINT LeftFingerBase
								{
									OFFSET 0.969147 -2.475906 -1.404449
									CHANNELS 6 Xposition Yposition Zposition Xrotation Yrotation Zrotation
									JOINT LeftHandFinger1
									{
										OFFSET 1.607109 -6.390400 -2.088608
										CHANNELS 3 Xrotation Yrotation Zrotation
										End Site
										{
											OFFSET 0.909389 -5.679668 -3.833626
										}
									}
								}
							}
						}
					}
				}
				JOINT Neck
				{
					OFFSET 0.000000 -4.393991 17.150887
					CHANNELS 6 Xposition Yposition Zposition Xrotation Yrotation Zrotation
					JOINT Neck1
					{
						OFFSET 0.000000 -1.702974 4.201599
						CHANNELS 6 Xposition Yposition Zposition Xrotation Yrotation Zrotation
						JOINT Head
						{
							OFFSET 0.000000 -1.702975 4.201614
							CHANNELS 3 Xrotation Yrotation Zrotation
							End Site
							{
								OFFSET -0.000000 0.059740 4.533218
							}
						}
					}
				}
				JOINT RightShoulder
				{
					OFFSET -2.181147 -5.601495 9.909775
					CHANNELS 6 Xposition Yposition Zposition Xrotation Yrotation Zrotation
					JOINT RightArm
					{
						OFFSET -13.807796 0.477388 -1.889328
						CHANNELS 3 Xrotation Yrotation Zrotation
						JOINT RightForeArm
						{
							OFFSET -14.961231 -1.118160 -16.000237
							CHANNELS 3 Xrotation Yrotation Zrotation
							JOINT RightHand
							{
								OFFSET -11.076982 -14.799612 -10.689354
								CHANNELS 3 Xrotation Yrotation Zrotation
								JOINT RThumb
								{
									OFFSET -0.078232 -4.097322 -0.602608
									CHANNELS 6 Xposition Yposition Zposition Xrotation Yrotation Zrotation
									End Site
									{
										OFFSET 2.422436 -2.470791 -0.896889
									}
								}
								JOINT RightFingerBase
								{
									OFFSET -0.969147 -2.475906 -1.404449
									CHANNELS 6 Xposition Yposition Zposition Xrotation Yrotation Zrotation
									JOINT RightHandFinger1
									{
										OFFSET -1.607109 -6.390400 -2.088608
										CHANNELS 3 Xrotation Yrotation Zrotation
										End Site
										{
											OFFSET -0.909389 -5.679668 -3.833626
										}
									}
								}
							}
						}
					}
				}
			}
		}
	}
	JOINT RHipJoint
	{
		OFFSET 0.000000 0.000000 0.000000
		CHANNELS 6 Xposition Yposition Zposition Xrotation Yrotation Zrotation
		JOINT RightUpLeg
		{
			OFFSET -10.633683 0.989041 -1.935760
			CHANNELS 6 Xposition Yposition Zposition Xrotation Yrotation Zrotation
			JOINT RightLeg
			{
				OFFSET -3.100535 -2.883984 -33.039326
				CHANNELS 3 Xrotation Yrotation Zrotation
				JOINT RightFoot
				{
					OFFSET -3.853231 2.499628 -39.978195
					CHANNELS 3 Xrotation Yrotation Zrotation
					JOINT RightToeBase
					{
						OFFSET -0.872595 -12.913427 -4.519028
						CHANNELS 3 Xrotation Yrotation Zrotation
						End Site
						{
							OFFSET -1.101316 -13.406555 -2.644062
						}
					}
				}
			}
		}
	}
}
MOTION
Frames: 4
Frame Time: 0.033333
0.287430 79.541969 0.715622 -86.119096 1.950899 16.265774 0.000001 -0.000001 0.000008 0.000004 0.000007 0.000005 10.633689 0.989043 -1.935769 -14.770410 9.539829 9.867850 26.898921 0.805151 12.138756 -17.292477 -17.244477 -4.182621 -0.000003 0.000000 0.000004 0.000001 3.682892 7.846213 -0.000026 0.000000 -0.000002 -0.000000 -0.321412 13.552464 0.042492 -0.689833 -4.239358 -0.000000 0.526905 12.045704 0.040046 -1.210727 -8.481942 2.181146 -5.601492 9.909776 0.942202 -11.342817 -1.844917 -12.556151 13.820609 -35.423957 -42.240202 18.313691 -41.924534 -34.018276 -22.175456 -35.797510 0.078217 -4.097325 -0.602621 -0.000002 0.000004 0.000002 0.969145 -2.475906 -1.404466 -0.000016 0.000005 0.000056 -0.000001 0.000007 0.000002 -0.000000 -4.393986 17.150879 3.131992 -2.119790 -2.117984 -0.000000 -1.702971 4.201611 3.131954 -2.119801 -2.118025 -0.000004 0.000000 -0.000000 -2.181144 -5.601493 9.909775 0.132737 1.218344 -9.132733 7.458347 -6.623624 -13.249025 -46.486602 -21.991932 45.922053 40.696121 2.889476 9.280236 -0.078219 -4.097328 -0.602619 -0.000001 -0.000005 -0.000004 -0.969140 -2.475909 -1.404448 -0.000039 0.000007 -0.000055 0.000002 -0.000001 -0.000001 -0.000000 -0.000001 0.000008 -0.000000 -0.000009 -0.000006 -10.633678 0.989040 -1.935758 -12.486499 -10.394295 -8.107679 25.587924 7.143840 -3.300685 -14.112555 4.734168 1.243015 -0.000004 -0.000000 -0.000002 
0.519100 79.527725 0.830482 -85.749337 4.531663 19.343425 0.000000 0.000003 -0.000000 -0.000004 0.000007 0.000006 10.633685 0.989043 -1.935749 -20.479924 7.137067 9.241973 34.361145 -0.714766 7.440992 -10.606226 -10.467501 -1.785414 -0.000000 0.000002 0.000001 0.000000 3.682895 7.846206 -0.000030 0.000000 0.000000 0.000001 -0.321412 13.552456 -0.226049 -2.290823 -4.442417 -0.000001 0.526905 12.045716 -0.611115 -4.063314 -8.911394 2.181145 -5.601496 9.909767 0.864818 -12.695999 -1.461270 -12.261247 9.677936 -41.642567 -42.220384 18.297520 -41.905809 -34.705479 -21.131967 -35.028813 0.078232 -4.097337 -0.602623 0.000001 0.000003 0.000006 0.969150 -2.475915 -1.404446 -0.000013 0.000011 0.000061 -0.000002 -0.000000 0.000004 0.000000 -4.393992 17.150885 2.488272 -1.480899 -2.485711 -0.000001 -1.702972 4.201597 2.488315 -1.480944 -2.485761 -0.000000 -0.000001 -0.000000 -2.181145 -5.601498 9.909763 -0.089576 0.229425 -11.010250 6.298718 -4.691587 -19.440484 -45.155986 -20.793165 44.673016 37.790149 3.918059 3.815874 -0.078224 -4.097329 -0.602611 0.000001 -0.000010 -0.000005 -0.969152 -2.475913 -1.404448 -0.000034 -0.000001 -0.000052 -0.000001 -0.000000 -0.000003 -0.000001 0.000002 0.000008 -0.000001 -0.000009 -0.000004 -10.633684 0.989040 -1.935765 -9.902586 -10.798997 -7.718079 19.945587 3.449741 -4.484674 -14.324696 4.915461 1.290174 -0.000001 -0.000002 -0.000001 
0.678183 79.406075 0.943405 -85.458323 6.874498 20.624622 0.000000 -0.000002 -0.000000 -0.000002 0.000009 0.000002 10.633688 0.989044 -1.935746 -26.160709 4.353574 8.528971 42.259200 -0.884559 -0.684560 -5.559881 -11.640860 -1.033752 -0.000003 0.000002 -0.000002 -0.000001 3.682891 7.846206 -0.000028 -0.000000 0.000001 0.000001 -0.321412 13.552444 -0.579774 -3.392280 -4.063517 0.000000 0.526905 12.045715 -1.372228 -5.821760 -8.207582 2.181144 -5.601497 9.909766 1.010660 -13.969037 -1.800111 -12.994367 4.722549 -46.802905 -42.405079 18.448539 -42.080324 -36.092612 -26.073358 -37.018054 0.078219 -4.097332 -0.602611 -0.000001 0.000009 0.000005 0.969142 -2.475908 -1.404455 -0.000018 0.000016 0.000058 -0.000001 0.000003 0.000002 -0.000001 -4.394000 17.150896 2.196022 -1.136684 -2.909720 -0.000001 -1.702969 4.201608 2.202095 -1.217723 -2.911533 -0.000005 0.000000 -0.000000 -2.181145 -5.601498 9.909781 -0.430396 -0.703985 -12.459080 4.377920 -3.156162 -24.506611 -43.155744 -19.070622 42.789137 35.057476 5.176452 -0.394624 -0.078225 -4.097332 -0.602611 -0.000003 -0.000008 0.000001 -0.969149 -2.475909 -1.404447 -0.000038 0.000002 -0.000056 -0.000003 -0.000003 -0.000003 -0.000001 -0.000003 -0.000000 -0.000001 -0.000007 -0.000005 -10.633684 0.989039 -1.935771 -8.420542 -11.278900 -8.653623 15.748458 0.095406 -5.550953 -14.588369 6.718015 1.641734 -0.000002 -0.000001 -0.000000 
0.835764 79.116882 1.084526 -85.129285 8.692587 19.815217 0.000001 -0.000006 -0.000015 -0.000003 0.000007 0.000003 10.633685 0.989042 -1.935759 -33.289731 -0.239184 8.575426 51.669312 -2.005613 -5.169290 -1.208071 -5.446949 -2.530408 -0.000001 0.000002 -0.000001 -0.000000 3.682887 7.846198 -0.000028 -0.000001 -0.000002 0.000001 -0.321411 13.552450 -0.997064 -3.921855 -3.160019 -0.000000 0.526903 12.045701 -2.183499 -6.382390 -6.474799 2.181145 -5.601496 9.909782 1.009537 -14.645353 -1.584348 -14.153484 -0.611498 -51.360881 -42.858266 18.822507 -42.508365 -38.269181 -33.003471 -40.370629 0.078218 -4.097333 -0.602618 0.000000 0.000004 0.000004 0.969135 -2.475908 -1.404444 -0.000019 0.000012 0.000057 0.000003 0.000000 0.000003 -0.000000 -4.393991 17.150890 2.620985 -1.058564 -3.254235 0.000000 -1.702967 4.201596 2.658216 -1.357461 -3.261932 0.000000 0.000001 -0.000000 -2.181141 -5.601498 9.909774 -0.645249 -0.748286 -12.858533 1.873782 -2.291505 -28.035365 -40.615167 -17.018355 40.386629 33.317649 6.536998 -2.815367 -0.078217 -4.097336 -0.602628 0.000004 -0.000005 0.000001 -0.969138 -2.475913 -1.404456 -0.000034 0.000005 -0.000058 -0.000001 0.000003 0.000001 -0.000000 -0.000006 -0.000015 -0.000000 -0.000008 -0.000006 -10.633684 0.989037 -1.935773 -7.746845 -12.004759 -11.176960 13.202669 -1.593883 -3.802982 -14.605844 7.276104 1.734581 -0.000005 -0.000001 -0.000001 
